<?xml version="1.0" standalone="no"?>
<!DOCTYPE svg PUBLIC "-//W3C//DTD SVG 20010904//EN"
 "http://www.w3.org/TR/2001/REC-SVG-20010904/DTD/svg10.dtd">
<svg version="1.0" xmlns="http://www.w3.org/2000/svg"
 width="260.000000pt" height="260.000000pt" viewBox="0 0 260.000000 260.000000"
 preserveAspectRatio="xMidYMid meet">
<metadata>
Created by potrace 1.14, written by Peter Selinger 2001-2017
</metadata>
<g transform="translate(0.000000,260.000000) scale(0.100000,-0.100000)"
fill="#000000" stroke="none">
<path d="M451 1357 c-107 -545 -196 -1000 -199 -1009 -4 -17 5 -18 144 -16
l149 3 100 562 c55 309 102 560 105 558 3 -2 124 -273 270 -603 146 -330 267
-599 270 -597 3 2 129 274 279 604 151 331 275 600 277 598 2 -1 41 -245 89
-542 47 -297 87 -550 90 -562 5 -23 8 -23 151 -23 134 0 146 1 142 18 -2 9
-83 463 -179 1009 -95 546 -177 989 -180 985 -3 -4 -147 -315 -319 -692 -172
-377 -320 -701 -330 -720 l-18 -35 -24 55 c-14 30 -157 354 -318 720 -161 366
-296 668 -299 672 -3 4 -93 -439 -200 -985z"/>
</g>
</svg>
